# xmcd
#
# Track frame offsets:
#	150
#	43766
#	66130
#	85314
#	101415
#	121349
#	136408
#	146525
#	165387
#	183179
#	195807
#
# Disc length: 2780 seconds
#
# Revision: 0
# Processed by: cddbd v1.5.2PL0 Copyright (c) Steve Scherf et al.
# Submitted via: EZCDAudioConverter 5.0.5.1
#
DISCID=8b0ada0b
DTITLE=Flaco Jimenez - Fiesta - Live in Bremen
DYEAR=2001
DGENRE=Tex-Mex
TTITLE0=Gitano Legitimo
TTITLE1=She Never Spoke Spanish To Me
TTITLE2=Tonight Is The Night
TTITLE3=Soulmates
TTITLE4=Did I Tell You
TTITLE5=Dinero
TTITLE6=You Get Me Wondering
TTITLE7=Love Me Do
TTITLE8=La Muana
TTITLE9=This Could Be The One
TTITLE10=Who Were You Thinking Of
EXTD=
EXTT0=
EXTT1=
EXTT2=
EXTT3=
EXTT4=
EXTT5=
EXTT6=
EXTT7=
EXTT8=
EXTT9=
EXTT10=
PLAYORDER=
